# xmcd
#
# Track frame offsets:
# 150
# 14185
# 36675
# 59775
# 80260
# 98550
# 117750
# 134250
# 152175
# 175125
# 195075
# 211725
#
# Disc length: 3022 seconds
#
#
# Revision: 2
# Processed by: cddbd v1.4PL0 Copyright (c) Steve Scherf et al.
# Submitted via: FreeRIP 2.00 
#
DISCID=a10bcc0c
DTITLE=Various Artist - Machos la brutal pasion de siete hermanos
DYEAR=2003
DGENRE=Soundtrack
TTITLE0=machos
TTITLE1=hijo del capitan trueno
TTITLE2=viejo
TTITLE3=te voy a llevar
TTITLE4=a veces
TTITLE5=como decirte que no
TTITLE6=jabon
TTITLE7=bohemio enamorado
TTITLE8=te vas a acordar de mi
TTITLE9=si tuviera que elegir
TTITLE10=a modo mio
TTITLE11=bugle buddy
EXTD=
EXTT0=
EXTT1=
EXTT2=
EXTT3=
EXTT4=
EXTT5=
EXTT6=
EXTT7=
EXTT8=
EXTT9=
EXTT10=
EXTT11=
PLAYORDER=
